<svg width="19" height="19" viewBox="0 0 19 19" fill="none" xmlns="http://www.w3.org/2000/svg">
<path fill-rule="evenodd" clip-rule="evenodd" d="M9.2547 1.88232C9.68064 1.88232 10.0259 2.22761 10.0259 2.65355V3.42478C10.0259 3.85071 9.68064 4.196 9.2547 4.196C8.82877 4.196 8.48348 3.85071 8.48348 3.42478V2.65355C8.48348 2.22761 8.82877 1.88232 9.2547 1.88232ZM3.80131 4.14119C4.10249 3.84001 4.59081 3.84001 4.89199 4.14119L5.43733 4.68653C5.73851 4.98772 5.73851 5.47603 5.43733 5.77721C5.13614 6.07839 4.64783 6.07839 4.34665 5.77721L3.80131 5.23187C3.50013 4.93069 3.50013 4.44238 3.80131 4.14119ZM14.7081 4.14119C15.0093 4.44238 15.0093 4.93069 14.7081 5.23187L14.1628 5.77721C13.8616 6.0784 13.3733 6.0784 13.0721 5.77721C12.7709 5.47603 12.7709 4.98772 13.0721 4.68653L13.6174 4.14119C13.9186 3.84001 14.4069 3.84001 14.7081 4.14119ZM7.07335 7.41325C5.86862 8.61798 5.86862 10.5712 7.07335 11.776L7.49528 12.1979C7.64415 12.3468 7.77768 12.5081 7.89483 12.6795H10.6146C10.7317 12.5081 10.8653 12.3468 11.0141 12.1979L11.4361 11.776C12.6408 10.5712 12.6408 8.61798 11.4361 7.41325C10.2313 6.20852 8.27808 6.20852 7.07335 7.41325ZM11.7572 13.7736C11.845 13.5957 11.9619 13.4315 12.1048 13.2886L12.5267 12.8666C14.3338 11.0595 14.3338 8.12967 12.5267 6.32257C10.7196 4.51547 7.78976 4.51547 5.98267 6.32257C4.17557 8.12967 4.17557 11.0595 5.98267 12.8666L6.4046 13.2886C6.54756 13.4315 6.66444 13.5957 6.75218 13.7736C6.75604 13.782 6.76004 13.7903 6.76418 13.7984C6.87953 14.0415 6.94102 14.3094 6.94102 14.5836V14.9932C6.94102 16.271 7.97689 17.3069 9.2547 17.3069C10.5325 17.3069 11.5684 16.271 11.5684 14.9932V14.5836C11.5684 14.3094 11.6299 14.0415 11.7452 13.7984C11.7494 13.7903 11.7534 13.782 11.7572 13.7736ZM10.0454 14.2219H8.46405C8.47694 14.3415 8.48348 14.4622 8.48348 14.5836V14.9932C8.48348 15.4191 8.82877 15.7644 9.2547 15.7644C9.68064 15.7644 10.0259 15.4191 10.0259 14.9932V14.5836C10.0259 14.4622 10.0325 14.3415 10.0454 14.2219ZM1.54248 9.59455C1.54248 9.16861 1.88777 8.82332 2.31371 8.82332H3.08493C3.51087 8.82332 3.85616 9.16861 3.85616 9.59455C3.85616 10.0205 3.51087 10.3658 3.08493 10.3658H2.31371C1.88777 10.3658 1.54248 10.0205 1.54248 9.59455ZM14.6533 9.59455C14.6533 9.16861 14.9986 8.82332 15.4246 8.82332H16.1958C16.6217 8.82332 16.967 9.16861 16.967 9.59455C16.967 10.0205 16.6217 10.3658 16.1958 10.3658H15.4246C14.9986 10.3658 14.6533 10.0205 14.6533 9.59455Z" fill="black"/>
</svg>
